<?xml version="1.0" encoding="utf-8"?>
<!-- Generator: Adobe Illustrator 22.0.0, SVG Export Plug-In . SVG Version: 6.00 Build 0)  -->
<svg version="1.1" id="Calque_1" xmlns="http://www.w3.org/2000/svg" xmlns:xlink="http://www.w3.org/1999/xlink" x="0px" y="0px"
	 width="512px" height="512px" viewBox="0 0 512 512" style="enable-background:new 0 0 512 512;" xml:space="preserve">
<title>XMLID_423_ Copy</title>
<desc>Created with Sketch.</desc>
<g id="Home-page">
	<g id="Page-instit.-développement-économique" transform="translate(-1277.000000, -5185.000000)">
		<g id="Group-11" transform="translate(198.000000, 4750.000000)">
			<g id="Group-14" transform="translate(1014.000000, 435.000000)">
				<path id="XMLID_423_-Copy" d="M455.7,60.9c13.6-13.2,13.6-36.2,0.9-50.3C449.8,3.5,440.4,0,431.8,0c-8.5,0-17.1,3.5-23.9,9.7
					L186.2,230.3c-6.8,7.1-10.2,15.9-10.2,25.6c0,9.7,3.4,18.5,10.2,25.6L408,502.2c13.6,13.2,35,13.2,48.6-0.9
					c12.8-14.1,12.8-36.2-0.9-50.3l-196.2-195L455.7,60.9z"/>
			</g>
		</g>
	</g>
</g>
</svg>
