<?xml version="1.0" encoding="utf-8"?>
<!-- Generator: Adobe Illustrator 22.0.0, SVG Export Plug-In . SVG Version: 6.00 Build 0)  -->
<svg version="1.1" id="Calque_1" xmlns="http://www.w3.org/2000/svg" xmlns:xlink="http://www.w3.org/1999/xlink" x="0px" y="0px"
	 width="512px" height="512px" viewBox="0 0 512 512" style="enable-background:new 0 0 512 512;" xml:space="preserve">
<path id="path-1_1_" d="M214.1,435.5c-0.6,0.6-1.3,1.9-1.9,3.2c-16,16-39.7,20.5-60.2,12.2c-7.7-2.6-14.7-7-20.5-12.8
	c-1.3-1.9-2.6-3.2-3.2-5.1L16.2,321.5c-21.8-21.8-21.8-57,0-78.1c21.8-21.8,57-21.8,78.1,0l74.9,74.9L414.5,73.1
	c22.4-22.4,58.9-22.4,80.7,0c22.4,22.4,22.4,58.9,0,80.7L214.1,435.5z"/>
</svg>
