<?xml version="1.0" encoding="utf-8"?>
<!-- Generator: Adobe Illustrator 22.0.0, SVG Export Plug-In . SVG Version: 6.00 Build 0)  -->
<svg version="1.1" id="Calque_1" xmlns="http://www.w3.org/2000/svg" xmlns:xlink="http://www.w3.org/1999/xlink" x="0px" y="0px"
	 viewBox="0 0 80 63" style="enable-background:new 0 0 80 63;" xml:space="preserve">
<path id="path-1_1_" d="M33.4,59.2c-0.1,0.1-0.2,0.3-0.3,0.5c-2.5,2.5-6.2,3.2-9.4,1.9c-1.2-0.4-2.3-1.1-3.2-2
	c-0.2-0.3-0.4-0.5-0.5-0.8L2.5,41.4c-3.4-3.4-3.4-8.9,0-12.2c3.4-3.4,8.9-3.4,12.2,0l11.7,11.7L64.7,2.6c3.5-3.5,9.2-3.5,12.6,0
	c3.5,3.5,3.5,9.2,0,12.6L33.4,59.2z"/>
</svg>
