<?xml version="1.0" encoding="utf-8"?>
<!-- Generator: Adobe Illustrator 22.0.0, SVG Export Plug-In . SVG Version: 6.00 Build 0)  -->
<svg version="1.1" id="Calque_1" xmlns="http://www.w3.org/2000/svg" xmlns:xlink="http://www.w3.org/1999/xlink" x="0px" y="0px"
	 viewBox="0 0 80 80" style="enable-background:new 0 0 80 80;" xml:space="preserve">
<path id="path-1_1_" d="M40,80C17.9,80,0,62.1,0,40S17.9,0,40,0s40,17.9,40,40S62.1,80,40,80z M40,8.9C22.8,8.9,8.9,22.8,8.9,40
	S22.8,71.1,40,71.1S71.1,57.2,71.1,40S57.2,8.9,40,8.9z M36.7,56.3c-0.1,0.1-0.1,0.2-0.2,0.2c-1.2,1.2-3.1,1.6-4.7,0.9
	c-0.6-0.2-1.2-0.6-1.6-1c-0.1-0.1-0.2-0.3-0.3-0.4l-8.7-8.7c-1.7-1.7-1.7-4.4,0-6.1c1.7-1.7,4.4-1.7,6.1,0l5.9,5.9l19.1-19.1
	c1.7-1.7,4.6-1.7,6.3,0c1.7,1.7,1.7,4.6,0,6.3L36.7,56.3z"/>
</svg>
