<?xml version="1.0" encoding="utf-8"?>
<!-- Generator: Adobe Illustrator 22.0.0, SVG Export Plug-In . SVG Version: 6.00 Build 0)  -->
<svg version="1.1" id="Calque_1" xmlns="http://www.w3.org/2000/svg" xmlns:xlink="http://www.w3.org/1999/xlink" x="0px" y="0px"
	 viewBox="0 0 512 512" enable-background="new 0 0 512 512" xml:space="preserve">
<path d="M256,0C114.6,0,0,114.6,0,256s114.6,256,256,256s256-114.6,256-256S397.4,0,256,0z M256,462.5
	c-114.1,0-206.5-92.4-206.5-206.5S141.9,49.5,256,49.5S462.5,141.9,462.5,256S370.1,462.5,256,462.5z M361.1,191.8L296.9,256
	l64.2,64.2c4.9,4.9,4.9,12.7,0,17.5l-23.3,23.3c-4.9,4.9-12.7,4.9-17.5,0L256,296.9l-64.2,64.2c-4.9,4.9-12.7,4.9-17.5,0l-23.3-23.3
	c-4.9-4.9-4.9-12.7,0-17.5l64.2-64.2l-64.2-64.2c-4.9-4.9-4.9-12.7,0-17.5l23.3-23.3c4.9-4.9,12.7-4.9,17.5,0l64.2,64.2l64.2-64.2
	c4.9-4.9,12.7-4.9,17.5,0l23.3,23.3C365.9,179.1,365.9,186.9,361.1,191.8L361.1,191.8z"/>
</svg>
