<?xml version="1.0" encoding="utf-8"?>
<!-- Generator: Adobe Illustrator 22.0.0, SVG Export Plug-In . SVG Version: 6.00 Build 0)  -->
<svg version="1.1" id="Calque_1" xmlns="http://www.w3.org/2000/svg" xmlns:xlink="http://www.w3.org/1999/xlink" x="0px" y="0px"
	 viewBox="0 0 80 80" style="enable-background:new 0 0 80 80;" xml:space="preserve">
<path id="path-1_1_" d="M40,0C17.9,0,0,17.9,0,40s17.9,40,40,40s40-17.9,40-40S62.1,0,40,0z M40,72C22.4,72,8,57.6,8,40S22.4,8,40,8
	s32,14.4,32,32S57.6,72,40,72z M54.8,49.2L45.7,40l9.2-9.2c1.6-1.6,1.6-4.1,0-5.7s-4.1-1.6-5.7,0L40,34.3l-9.2-9.2
	c-1.6-1.6-4.1-1.6-5.7,0s-1.6,4.1,0,5.7l9.2,9.2l-9.2,9.2c-1.6,1.6-1.6,4.1,0,5.7c2.7,2.5,4.9,0.8,5.7,0l9.2-9.2l9.2,9.2
	c2.3,2.3,4.9,0.8,5.7,0C56.4,53.3,56.4,50.7,54.8,49.2z"/>
</svg>
