<?xml version="1.0" encoding="utf-8"?>
<!-- Generator: Adobe Illustrator 22.0.0, SVG Export Plug-In . SVG Version: 6.00 Build 0)  -->
<svg version="1.1" id="Calque_1" xmlns="http://www.w3.org/2000/svg" xmlns:xlink="http://www.w3.org/1999/xlink" x="0px" y="0px"
	 width="512px" height="512px" viewBox="0 0 512 512" style="enable-background:new 0 0 512 512;" xml:space="preserve">
<path d="M447.8,374.8L330,255.3l119.5-119.5c21-21,21-53.1,0-74.1c-21-21-53.1-21-74.1,0L256,181.8L136.5,62.3
	c-20.4-21-53.1-21-74.1,0s-21,53.1,0,74.1l119.5,119.5L62.4,374.8c-21,21-21,53.1,0,74.1c34.9,32.6,63.6,10.5,74.1,0L256,329.3
	l119.5,119.5c29.7,29.7,63.6,10.5,74.1,0C468.8,427.9,468.8,394.1,447.8,374.8z"/>
</svg>
