<?xml version="1.0" encoding="utf-8"?>
<!-- Generator: Adobe Illustrator 22.0.0, SVG Export Plug-In . SVG Version: 6.00 Build 0)  -->
<svg version="1.1" id="Calque_1" xmlns="http://www.w3.org/2000/svg" xmlns:xlink="http://www.w3.org/1999/xlink" x="0px" y="0px"
	 viewBox="0 0 512 512" enable-background="new 0 0 512 512" xml:space="preserve">
<path d="M489.8,400.8L346.2,255.2l145.7-145.7c25.6-25.6,25.6-64.7,0-90.3c-25.6-25.6-64.7-25.6-90.3,0L256,165.6L110.3,19.9
	C85.4-5.7,45.6-5.7,20,19.9s-25.6,64.7,0,90.3l145.7,145.7L20,400.8c-25.6,25.6-25.6,64.7,0,90.3c42.6,39.8,77.5,12.8,90.3,0
	L256,345.4l145.7,145.7c36.2,36.2,77.5,12.8,90.3,0C515.4,465.5,515.4,424.3,489.8,400.8z"/>
</svg>
