<?xml version="1.0" encoding="utf-8"?>
<!-- Generator: Adobe Illustrator 22.0.0, SVG Export Plug-In . SVG Version: 6.00 Build 0)  -->
<svg version="1.1" id="Calque_1" xmlns="http://www.w3.org/2000/svg" xmlns:xlink="http://www.w3.org/1999/xlink" x="0px" y="0px"
	 viewBox="0 0 512 512" enable-background="new 0 0 512 512" xml:space="preserve">
<path d="M512,54.9v402.3c0,30.3-24.6,54.9-54.9,54.9h-97.5V309.5h69.3l9.9-77.3h-79.2v-49.4c0-22.4,6.2-37.6,38.3-37.6h40.9v-69
	c-7.1-0.9-31.3-3.1-59.7-3.1c-59,0-99.4,36-99.4,102.2v57h-69.5v77.3h69.6V512h-225C24.6,512,0,487.4,0,457.1V54.9
	C0,24.6,24.6,0,54.9,0h402.3C487.4,0,512,24.6,512,54.9z"/>
</svg>
