<?xml version="1.0" encoding="utf-8"?>
<!-- Generator: Adobe Illustrator 22.0.0, SVG Export Plug-In . SVG Version: 6.00 Build 0)  -->
<svg version="1.1" id="Calque_1" xmlns="http://www.w3.org/2000/svg" xmlns:xlink="http://www.w3.org/1999/xlink" x="0px" y="0px"
	 width="512px" height="512px" viewBox="0 0 512 512" style="enable-background:new 0 0 512 512;" xml:space="preserve">
<g>
	<path style="fill:#2A2A2A;" d="M256.1,124.7c-69.2,0-125,58.6-125,131.3s55.8,131.3,125,131.3S381,328.7,381,256
		S325.2,124.7,256.1,124.7z M256.1,341.3c-44.7,0-81.3-38.3-81.3-85.3s36.4-85.3,81.3-85.3c44.8,0,81.3,38.3,81.3,85.3
		S300.8,341.3,256.1,341.3z"/>
	<path style="fill:#2A2A2A;" d="M498.1,150.4c-1.8-41-10.8-77.3-39.4-107.3C430.2,13.2,395.6,3.9,356.6,1.8
		c-40.2-2.4-160.9-2.4-201.1,0C116.5,3.7,81.9,13.1,53.3,43C24.7,73,15.9,109.3,13.9,150.3c-2.3,42.3-2.3,169,0,211.2
		c1.8,41,10.8,77.3,39.4,107.3s63.1,39.3,102.1,41.4c40.2,2.4,160.9,2.4,201.1,0c39.1-1.9,73.6-11.3,102.1-41.4
		c28.5-29.9,37.4-66.3,39.4-107.3C500.4,319.3,500.4,192.7,498.1,150.4z M446.1,406.9c-8.5,22.4-24.9,39.6-46.3,48.7
		c-32.1,13.4-108.2,10.3-143.7,10.3s-111.7,3-143.7-10.3C91,446.7,74.6,429.4,66,406.9c-12.7-33.7-9.8-113.7-9.8-150.9
		S53.4,138.7,66,105.1c8.5-22.4,24.9-39.6,46.3-48.7C144.4,43,220.6,46.1,256.1,46.1s111.7-3,143.7,10.3
		c21.3,8.9,37.7,26.2,46.3,48.7c12.7,33.7,9.8,113.7,9.8,150.9S458.8,373.3,446.1,406.9z"/>
	<ellipse style="fill:#2A2A2A;" cx="386.2" cy="119.4" rx="29.2" ry="30.6"/>
</g>
</svg>
