<?xml version="1.0" encoding="utf-8"?>
<!-- Generator: Adobe Illustrator 22.0.0, SVG Export Plug-In . SVG Version: 6.00 Build 0)  -->
<svg version="1.1" id="Calque_1" xmlns="http://www.w3.org/2000/svg" xmlns:xlink="http://www.w3.org/1999/xlink" x="0px" y="0px"
	 width="512px" height="512px" viewBox="0 0 512 512" style="enable-background:new 0 0 512 512;" xml:space="preserve">
<path id="Shape" d="M107.2,148.7v338.8H0.9V148.7H107.2z M128.4,53.4c0.2,15.1-5.6,27.7-17.4,37.8s-27.4,15.2-46.7,15.2h-0.7
	c-18.8,0-34-5.1-45.5-15.2C6.6,81.1,0.9,68.5,0.9,53.4c0-15.3,5.9-27.9,17.8-37.9s27.3-15,46.4-15s34.4,5,45.8,15
	S128.2,38.2,128.4,53.4z M511.1,297.7v189.8H399.8V310.4c0-23.4-4.6-41.7-13.7-55c-9.1-13.3-23.4-19.9-42.8-19.9
	c-14.2,0-26.1,3.8-35.7,11.5c-9.6,7.7-16.8,17.2-21.5,28.6c-2.5,6.7-3.7,15.7-3.7,27.1v184.8H171c0.5-88.9,0.7-160.9,0.7-216.2
	s-0.1-88.2-0.3-98.9l-0.3-16h111.3v48.1h-0.7c4.5-7.1,9.1-13.4,13.9-18.7c4.7-5.3,11.1-11.1,19.1-17.4c8-6.2,17.8-11.1,29.4-14.5
	c11.6-3.5,24.5-5.2,38.8-5.2c38.6,0,69.6,12.6,93.1,37.9C499.4,211.9,511.1,248.9,511.1,297.7z"/>
</svg>
