<?xml version="1.0" encoding="utf-8"?>
<!-- Generator: Adobe Illustrator 22.0.0, SVG Export Plug-In . SVG Version: 6.00 Build 0)  -->
<svg version="1.1" id="Calque_1" xmlns="http://www.w3.org/2000/svg" xmlns:xlink="http://www.w3.org/1999/xlink" x="0px" y="0px"
	 viewBox="0 0 512 512" enable-background="new 0 0 512 512" xml:space="preserve">
<path d="M457.1,0H54.9C24.6,0,0,24.6,0,54.9v402.3C0,487.4,24.6,512,54.9,512h402.3c30.3,0,54.9-24.6,54.9-54.9V54.9
	C512,24.6,487.4,0,457.1,0z M154.9,438.9L154.9,438.9h-76V194.5h76V438.9z M116.8,161.1c-24.3,0-44-19.8-44-44s19.7-44,44-44
	c24.2,0,44,19.8,44,44C160.8,141.5,141.1,161.1,116.8,161.1z M439.2,438.9h-75.9V320c0-28.3-0.6-64.8-39.4-64.8
	c-39.5,0-45.6,30.9-45.6,62.7v120.9h-75.9V194.5h72.8v33.4h1c10.2-19.2,35-39.4,71.9-39.4c76.8,0,91.1,50.6,91.1,116.5V438.9z"/>
</svg>
