<?xml version="1.0" encoding="utf-8"?>
<!-- Generator: Adobe Illustrator 22.0.0, SVG Export Plug-In . SVG Version: 6.00 Build 0)  -->
<svg version="1.1" id="Calque_1" xmlns="http://www.w3.org/2000/svg" xmlns:xlink="http://www.w3.org/1999/xlink" x="0px" y="0px"
	 viewBox="0 0 512 512" enable-background="new 0 0 512 512" xml:space="preserve">
<path d="M114.6,512H8.5V170.2h106.1V512z M61.5,123.6C27.5,123.6,0,95.5,0,61.6S27.5,0.1,61.5,0.1s61.5,27.5,61.5,61.5
	S95.4,123.6,61.5,123.6z M511.9,512H406V345.6c0-39.6-0.8-90.5-55.2-90.5c-55.2,0-63.6,43.1-63.6,87.6V512h-106V170.2h101.8v46.6
	h1.5c14.2-26.9,48.8-55.2,100.4-55.2c107.4,0,127.2,70.7,127.2,162.6V512H511.9L511.9,512z"/>
</svg>
