<?xml version="1.0" encoding="utf-8"?>
<!-- Generator: Adobe Illustrator 22.0.0, SVG Export Plug-In . SVG Version: 6.00 Build 0)  -->
<svg version="1.1" id="Calque_1" xmlns="http://www.w3.org/2000/svg" xmlns:xlink="http://www.w3.org/1999/xlink" x="0px" y="0px"
	 viewBox="0 0 512 512" enable-background="new 0 0 512 512" xml:space="preserve">
<path d="M475.4,201.1H310.9V36.6c0-20.2-16.3-36.6-36.6-36.6h-36.6c-20.2,0-36.6,16.3-36.6,36.6v164.6H36.6
	C16.3,201.1,0,217.5,0,237.7v36.6c0,20.2,16.3,36.6,36.6,36.6h164.6v164.6c0,20.2,16.3,36.6,36.6,36.6h36.6
	c20.2,0,36.6-16.3,36.6-36.6V310.9h164.6c20.2,0,36.6-16.3,36.6-36.6v-36.6C512,217.5,495.7,201.1,475.4,201.1z"/>
</svg>
