<?xml version="1.0" encoding="utf-8"?>
<!-- Generator: Adobe Illustrator 22.0.0, SVG Export Plug-In . SVG Version: 6.00 Build 0)  -->
<svg version="1.1" id="Calque_1" xmlns="http://www.w3.org/2000/svg" xmlns:xlink="http://www.w3.org/1999/xlink" x="0px" y="0px"
	 width="512px" height="512px" viewBox="0 0 512 512" style="enable-background:new 0 0 512 512;" xml:space="preserve">
<title>twitter copy 3</title>
<desc>Created with Sketch.</desc>
<path style="fill:#2A2A2A;" d="M511.7,98.5c-18.8,8.1-39.3,13.9-60.3,16.1c21.7-12.9,38.3-33.2,46.1-57.4
	c-20.1,11.9-42.8,20.7-66.5,25.2c-19.1-20.3-46.4-32.9-76.6-32.9c-58.1,0-104.8,46.8-104.8,104.2c0,8.1,1,16.1,2.6,23.9
	c-87-4.5-164.5-45.8-216.1-109.1c-9.1,15.5-14.3,33.2-14.3,52.6c0,36.1,18.5,68.1,46.7,86.8c-17.2-0.6-33.4-5.5-47.4-13.2v1.3
	c0,50.7,36,92.6,84,102.3c-8.8,2.3-18.2,3.5-27.6,3.5c-6.8,0-13.3-0.6-19.8-1.6c13.3,41.3,51.9,71.3,98,72.3
	c-36,28.1-81.1,44.5-130.1,44.5c-8.8,0-16.9-0.3-25.3-1.3c46.4,29.7,101.6,46.8,160.9,46.8c192.7,0,298.2-158.7,298.2-296.5
	c0-4.5,0-9-0.3-13.6C479.5,137.6,497.4,119.2,511.7,98.5z"/>
</svg>
