<?xml version="1.0" encoding="utf-8"?>
<!-- Generator: Adobe Illustrator 22.0.0, SVG Export Plug-In . SVG Version: 6.00 Build 0)  -->
<svg version="1.1" id="Calque_1" xmlns="http://www.w3.org/2000/svg" xmlns:xlink="http://www.w3.org/1999/xlink" x="0px" y="0px"
	 viewBox="0 0 512 512" enable-background="new 0 0 512 512" xml:space="preserve">
<path d="M457.1,0H54.9C24.6,0,0,24.6,0,54.9v402.3C0,487.4,24.6,512,54.9,512h402.3c30.3,0,54.9-24.6,54.9-54.9V54.9
	C512,24.6,487.4,0,457.1,0z M401.3,181.5c0.2,3.2,0.2,6.5,0.2,9.7c0,99.1-75.4,213.3-213.3,213.3c-42.5,0-81.9-12.3-115.1-33.6
	c6.1,0.7,11.9,0.9,18.1,0.9c35.1,0,67.3-11.9,93-32c-32.9-0.7-60.6-22.3-70.1-52c11.5,1.7,21.9,1.7,33.8-1.4
	c-34.3-7-60-37.1-60-73.6v-0.9c9.9,5.6,21.6,9,33.8,9.5C100.9,207.4,88.5,184,88.5,159c0-13.9,3.7-26.7,10.2-37.8
	c36.9,45.5,92.3,75.2,154.5,78.4c-10.6-50.9,27.4-92.1,73.1-92.1c21.6,0,41,9,54.7,23.7c16.9-3.2,33.1-9.5,47.5-18.1
	c-5.6,17.4-17.4,32-32.9,41.3c15.1-1.6,29.7-5.8,43.2-11.7C428.7,157.6,415.9,170.9,401.3,181.5z"/>
</svg>
