<?xml version="1.0" encoding="utf-8"?>
<!-- Generator: Adobe Illustrator 22.0.0, SVG Export Plug-In . SVG Version: 6.00 Build 0)  -->
<svg version="1.1" id="Calque_1" xmlns="http://www.w3.org/2000/svg" xmlns:xlink="http://www.w3.org/1999/xlink" x="0px" y="0px"
	 viewBox="0 0 512 512" enable-background="new 0 0 512 512" xml:space="preserve">
<path d="M213.5,194.4l108.8,61.8l-108.8,61.8V194.4z M512,54.9v402.3c0,30.3-24.6,54.9-54.9,54.9H54.9C24.6,512,0,487.4,0,457.1
	V54.9C0,24.6,24.6,0,54.9,0h402.3C487.4,0,512,24.6,512,54.9z M464,256.3c0,0,0-68.1-8.7-100.8c-4.8-18.1-18.9-32.2-36.8-37
	c-32.3-8.8-162.5-8.8-162.5-8.8s-130.2,0-162.5,8.8c-17.9,4.8-32,19-36.8,37C48,188.1,48,256.3,48,256.3s0,68.1,8.7,100.8
	c4.8,18.1,18.9,31.7,36.8,36.5c32.3,8.7,162.5,8.7,162.5,8.7s130.2,0,162.5-8.8c17.9-4.8,32-18.4,36.8-36.5
	C464,324.5,464,256.3,464,256.3L464,256.3z"/>
</svg>
