<?xml version="1.0" encoding="utf-8"?>
<!-- Generator: Adobe Illustrator 22.0.0, SVG Export Plug-In . SVG Version: 6.00 Build 0)  -->
<svg version="1.1" id="Calque_1" xmlns="http://www.w3.org/2000/svg" xmlns:xlink="http://www.w3.org/1999/xlink" x="0px" y="0px"
	 width="512px" height="512px" viewBox="0 0 512 512" style="enable-background:new 0 0 512 512;" xml:space="preserve">
<title>youtube copy 3</title>
<desc>Created with Sketch.</desc>
<path style="fill:#2A2A2A;" d="M501.3,128.6c-5.9-22.8-23.2-40.8-45.3-46.9c-39.9-11.1-200-11.1-200-11.1s-160.1,0-200,11.1
	c-22,6.1-39.4,24.1-45.3,46.9C0,170,0,256.4,0,256.4s0,86.4,10.7,127.7c5.9,22.8,23.2,40.1,45.3,46.2c39.9,11.1,200,11.1,200,11.1
	s160.1,0,200-11.1c22-6.1,39.4-23.3,45.3-46.2C512,342.7,512,256.4,512,256.4S512,170,501.3,128.6z M203.6,334.8V178l133.8,78.4
	L203.6,334.8z"/>
</svg>
