<svg xmlns="http://www.w3.org/2000/svg" viewBox="0 0 527.3 88.4"><path d="M168.7 47.5V57h-30.2V12.5h11.3v35h18.9zm16.7-26.1v8.8h21.2v8.9h-21.2v9h24.2V57h-35.5V12.5h34.8v8.9h-23.5zm66.2-4.4l-4.3 8.8c-4.7-2.7-10.6-4.6-14.2-4.6-2.9 0-4.9 1.1-4.9 3.2 0 7.7 23.5 3.3 23.5 19.4 0 8.9-7.9 13.6-17.8 13.6-7.4 0-15.1-2.8-20.3-7.1l4.4-8.7c4.6 4 11.4 6.7 16.1 6.7 3.6 0 5.8-1.3 5.8-3.9 0-7.9-23.5-3.2-23.5-18.9 0-8.2 7.1-13.4 17.7-13.4 6.3-.1 12.9 1.9 17.5 4.9zM285 48.1h24.1v9h-39.3v-7.2l23.8-28.3h-23v-9h38v7.2L285 48.1zm41.8-26.7v8.8H348v8.9h-21.2v9H351V57h-35.5V12.5h34.8v8.9h-23.5zm3.4-10.7L322 3.5l9.9-3.5 6.7 10.7h-8.4zm49.1 1.8c10 0 16.3 4.3 16.3 11.1 0 4.7-2.9 8.4-7.6 9.8 5.6 1.1 9.1 5.5 9.1 11.2 0 7.6-6.6 12.3-17.1 12.3h-21.8V12.5h21.1zm-9.8 17.8h9.1c3.3 0 5.4-1.8 5.4-4.6s-2.1-4.5-5.4-4.5h-9.1v9.1zm0 18h9.1c4.2 0 6.8-1.8 6.8-5 0-3-2.6-4.8-6.8-4.8h-9.1v9.8zm54.4-3.8H415V57h-11.3V12.5h19.9c11.8 0 18.5 5.6 18.5 15.5 0 6.8-2.9 11.7-8.1 14.3l9.3 14.7h-12.8l-6.6-12.5zm-.3-8.9c4.9 0 7.8-2.5 7.8-7.2 0-4.6-2.9-7-7.8-7H415v14.2h8.6zM461 21.4v8.8h21.2v8.9H461v9h24.2V57h-35.5V12.5h34.8v8.9H461zm66.2-4.4l-4.3 8.8c-4.7-2.7-10.6-4.6-14.2-4.6-2.9 0-4.9 1.1-4.9 3.2 0 7.7 23.5 3.3 23.5 19.4 0 8.9-7.9 13.6-17.8 13.6-7.4 0-15.1-2.8-20.3-7.1l4.4-8.7c4.6 4 11.4 6.7 16.1 6.7 3.6 0 5.8-1.3 5.8-3.9 0-7.9-23.5-3.2-23.5-18.9 0-8.2 7.1-13.4 17.7-13.4 6.3-.1 12.9 1.9 17.5 4.9zM154.5 69.9l-1.6 2c-1.2-1.3-2.9-2-4.5-2-3.2 0-5.7 2.5-5.7 5.7s2.5 5.7 5.7 5.7c1.6 0 3.3-.7 4.5-1.9l1.6 1.8c-1.6 1.6-4 2.6-6.2 2.6-4.7 0-8.4-3.6-8.4-8.2s3.7-8.1 8.5-8.1c2.2 0 4.5.9 6.1 2.4zm28.6 5.7c0 4.6-3.7 8.2-8.5 8.2s-8.5-3.6-8.5-8.2 3.7-8.1 8.5-8.1 8.5 3.5 8.5 8.1zm-14.3 0c0 3.2 2.6 5.7 5.8 5.7s5.7-2.5 5.7-5.7-2.6-5.7-5.7-5.7-5.8 2.5-5.8 5.7zm37.4 5.6v2.5h-9.7V67.5h2.7v13.6h7zm22.8 0v2.5h-9.7V67.5h2.7v13.6h7zM244.9 70v4.3h7.9v2.4h-7.9v4.4h9.1v2.4h-11.8v-16h11.5V70h-8.8zm36.1-.1l-1.6 2c-1.2-1.3-2.9-2-4.5-2-3.2 0-5.7 2.5-5.7 5.7s2.5 5.7 5.7 5.7c1.6 0 3.3-.7 4.5-1.9l1.6 1.8c-1.6 1.6-4 2.6-6.2 2.6-4.7 0-8.4-3.6-8.4-8.2s3.7-8.1 8.5-8.1c2.2 0 4.5.9 6.1 2.4zm19.2.1v13.7h-2.7V70h-5.1v-2.4h12.9V70h-5.1zm17.9 13.6V67.5h2.7v16.1h-2.7zM338.3 70v4.6h7.3V77h-7.3v6.6h-2.7V67.5h10.8v2.4h-8.1zm44.1-2.5c4.8 0 8.3 3.4 8.3 8s-3.5 8-8.4 8h-6.5v-16h6.6zm-3.9 13.7h4c3.1 0 5.5-2.3 5.5-5.6s-2.5-5.6-5.6-5.6h-3.8v11.2zm25.6 2.4V67.5h2.7v16.1h-2.7zm30.8-7.9v5.9c-1.6 1.2-4 2.1-6.3 2.1-4.8 0-8.5-3.6-8.5-8.2s3.7-8.1 8.6-8.1c2.3 0 4.6.9 6.2 2.3l-1.5 2c-1.2-1.2-3-1.8-4.6-1.8-3.3 0-5.9 2.5-5.9 5.7s2.6 5.7 5.9 5.7c1.2 0 2.6-.4 3.7-1.1v-4.5h2.4zm14.4 7.9V67.5h2.7v16.1h-2.7zM472.6 70v13.7h-2.7V70h-5.1v-2.4h12.9V70h-5.1zm18.7 10l-1.5 3.6H487l7.1-16.1h2.8l7 16.1H501l-1.5-3.6h-8.2zm4-9.6l-3 7.2h6.1l-3.1-7.2zm30.8 10.8v2.5h-9.7V67.5h2.7v13.6h7zM88 88.4zM0 .4v35.2L35.2.4zM88 18V.4H70.4L0 70.8v17.6h17.6zm0 35.2L52.8 88.4H88z"/></svg>