<?xml version="1.0" encoding="utf-8"?>
<!-- Generator: Adobe Illustrator 22.0.1, SVG Export Plug-In . SVG Version: 6.00 Build 0)  -->
<svg version="1.1" id="Calque_1" xmlns="http://www.w3.org/2000/svg" xmlns:xlink="http://www.w3.org/1999/xlink" x="0px" y="0px"
	 viewBox="0 0 527.3 88.4" style="enable-background:new 0 0 527.3 88.4;" xml:space="preserve">
<g>
	<g>
		<path d="M168.7,47.5V57h-30.2V12.5h11.3v35H168.7z"/>
		<path d="M185.4,21.4v8.8h21.2v8.9h-21.2v9h24.2V57h-35.5V12.5h34.8v8.9H185.4z"/>
		<path d="M251.6,17l-4.3,8.8c-4.7-2.7-10.6-4.6-14.2-4.6c-2.9,0-4.9,1.1-4.9,3.2c0,7.7,23.5,3.3,23.5,19.4
			c0,8.9-7.9,13.6-17.8,13.6c-7.4,0-15.1-2.8-20.3-7.1l4.4-8.7c4.6,4,11.4,6.7,16.1,6.7c3.6,0,5.8-1.3,5.8-3.9
			c0-7.9-23.5-3.2-23.5-18.9c0-8.2,7.1-13.4,17.7-13.4C240.4,12,247,14,251.6,17z"/>
		<path d="M285,48.1h24.1v9h-39.3v-7.2l23.8-28.3h-23v-9h38v7.2L285,48.1z"/>
		<path d="M326.8,21.4v8.8H348v8.9h-21.2v9H351V57h-35.5V12.5h34.8v8.9H326.8z M330.2,10.7L322,3.5l9.9-3.5l6.7,10.7H330.2z"/>
		<path d="M379.3,12.5c10,0,16.3,4.3,16.3,11.1c0,4.7-2.9,8.4-7.6,9.8c5.6,1.1,9.1,5.5,9.1,11.2c0,7.6-6.6,12.3-17.1,12.3h-21.8
			V12.5H379.3z M369.5,30.3h9.1c3.3,0,5.4-1.8,5.4-4.6s-2.1-4.5-5.4-4.5h-9.1V30.3z M369.5,48.3h9.1c4.2,0,6.8-1.8,6.8-5
			c0-3-2.6-4.8-6.8-4.8h-9.1V48.3z"/>
		<path d="M423.9,44.5h-0.3H415V57h-11.3V12.5h19.9c11.8,0,18.5,5.6,18.5,15.5c0,6.8-2.9,11.7-8.1,14.3l9.3,14.7h-12.8L423.9,44.5z
			 M423.6,35.6c4.9,0,7.8-2.5,7.8-7.2c0-4.6-2.9-7-7.8-7H415v14.2H423.6z"/>
		<path d="M461,21.4v8.8h21.2v8.9H461v9h24.2V57h-35.5V12.5h34.8v8.9H461z"/>
		<path d="M527.2,17l-4.3,8.8c-4.7-2.7-10.6-4.6-14.2-4.6c-2.9,0-4.9,1.1-4.9,3.2c0,7.7,23.5,3.3,23.5,19.4
			c0,8.9-7.9,13.6-17.8,13.6c-7.4,0-15.1-2.8-20.3-7.1l4.4-8.7c4.6,4,11.4,6.7,16.1,6.7c3.6,0,5.8-1.3,5.8-3.9
			c0-7.9-23.5-3.2-23.5-18.9c0-8.2,7.1-13.4,17.7-13.4C516,12,522.6,14,527.2,17z"/>
	</g>
	<g>
		<path d="M154.5,69.9l-1.6,2c-1.2-1.3-2.9-2-4.5-2c-3.2,0-5.7,2.5-5.7,5.7c0,3.2,2.5,5.7,5.7,5.7c1.6,0,3.3-0.7,4.5-1.9l1.6,1.8
			c-1.6,1.6-4,2.6-6.2,2.6c-4.7,0-8.4-3.6-8.4-8.2c0-4.6,3.7-8.1,8.5-8.1C150.6,67.5,152.9,68.4,154.5,69.9z"/>
		<path d="M183.1,75.6c0,4.6-3.7,8.2-8.5,8.2s-8.5-3.6-8.5-8.2c0-4.6,3.7-8.1,8.5-8.1S183.1,71,183.1,75.6z M168.8,75.6
			c0,3.2,2.6,5.7,5.8,5.7s5.7-2.5,5.7-5.7s-2.6-5.7-5.7-5.7C171.5,69.9,168.8,72.4,168.8,75.6z"/>
		<path d="M206.2,81.2v2.5h-9.7V67.5h2.7v13.6H206.2z"/>
		<path d="M229,81.2v2.5h-9.7V67.5h2.7v13.6H229z"/>
		<path d="M244.9,70v4.3h7.9v2.4h-7.9v4.4h9.1v2.4h-11.8V67.5h11.5V70H244.9z"/>
		<path d="M281,69.9l-1.6,2c-1.2-1.3-2.9-2-4.5-2c-3.2,0-5.7,2.5-5.7,5.7c0,3.2,2.5,5.7,5.7,5.7c1.6,0,3.3-0.7,4.5-1.9l1.6,1.8
			c-1.6,1.6-4,2.6-6.2,2.6c-4.7,0-8.4-3.6-8.4-8.2c0-4.6,3.7-8.1,8.5-8.1C277.1,67.5,279.4,68.4,281,69.9z"/>
		<path d="M300.2,70v13.7h-2.7V70h-5.1v-2.4h12.9V70H300.2z"/>
		<path d="M318.1,83.6V67.5h2.7v16.1H318.1z"/>
		<path d="M338.3,70v4.6h7.3V77h-7.3v6.6h-2.7V67.5h10.8l0,2.4H338.3z"/>
		<path d="M382.4,67.5c4.8,0,8.3,3.4,8.3,8c0,4.6-3.5,8-8.4,8h-6.5V67.5H382.4z M378.5,81.2h4c3.1,0,5.5-2.3,5.5-5.6
			c0-3.3-2.5-5.6-5.6-5.6h-3.8V81.2z"/>
		<path d="M404.1,83.6V67.5h2.7v16.1H404.1z"/>
		<path d="M434.9,75.7v5.9c-1.6,1.2-4,2.1-6.3,2.1c-4.8,0-8.5-3.6-8.5-8.2c0-4.6,3.7-8.1,8.6-8.1c2.3,0,4.6,0.9,6.2,2.3l-1.5,2
			c-1.2-1.2-3-1.8-4.6-1.8c-3.3,0-5.9,2.5-5.9,5.7c0,3.2,2.6,5.7,5.9,5.7c1.2,0,2.6-0.4,3.7-1.1v-4.5H434.9z"/>
		<path d="M449.3,83.6V67.5h2.7v16.1H449.3z"/>
		<path d="M472.6,70v13.7h-2.7V70h-5.1v-2.4h12.9V70H472.6z"/>
		<path d="M491.3,80l-1.5,3.6h-2.8l7.1-16.1h2.8l7,16.1h-2.9l-1.5-3.6H491.3z M495.3,70.4l-3,7.2h6.1L495.3,70.4z"/>
		<path d="M526.1,81.2v2.5h-9.7V67.5h2.7v13.6H526.1z"/>
	</g>
</g>
<g>
	<polygon points="88,88.4 88,88.4 88,88.4 	"/>
	<polygon points="0,0.4 0,35.6 35.2,0.4 	"/>
	<polygon points="88,18 88,0.4 70.4,0.4 0,70.8 0,88.4 17.6,88.4 	"/>
	<polygon points="88,53.2 52.8,88.4 88,88.4 88,88.4 	"/>
</g>
</svg>
